HIERARCHY
ROOT Hips
{
	OFFSET -335.845001 -574.368103 89.378365
	CHANNELS 6 Xposition Yposition Zposition Zrotation Yrotation Xrotation
	JOINT Spine
	{
		OFFSET 0.000000 2.080078 8.814247
		CHANNELS 6 Xposition Yposition Zposition Zrotation Yrotation Xrotation
		JOINT Spine1
		{
			OFFSET 0.000000 0.000000 8.844139
			CHANNELS 6 Xposition Yposition Zposition Zrotation Yrotation Xrotation
			JOINT Spine2
			{
				OFFSET 0.000000 0.000000 11.682266
				CHANNELS 6 Xposition Yposition Zposition Zrotation Yrotation Xrotation
				JOINT Spine3
				{
					OFFSET 0.000000 0.000000 11.746696
					CHANNELS 6 Xposition Yposition Zposition Zrotation Yrotation Xrotation
					JOINT Neck
					{
						OFFSET 0.000000 0.000000 17.658264
						CHANNELS 6 Xposition Yposition Zposition Zrotation Yrotation Xrotation
						JOINT Neck1
						{
							OFFSET 0.000000 0.000000 5.101517
							CHANNELS 6 Xposition Yposition Zposition Zrotation Yrotation Xrotation
							JOINT Head
							{
								OFFSET 0.000000 0.000000 5.101517
								CHANNELS 6 Xposition Yposition Zposition Zrotation Yrotation Xrotation
								JOINT HeadEnd
								{
									OFFSET 0.000000 0.000000 11.655090
									CHANNELS 6 Xposition Yposition Zposition Zrotation Yrotation Xrotation
									End Site
									{
										OFFSET 0.000000 0.000000 0.100006
									}
								}
							}
						}
					}
					JOINT RightShoulder
					{
						OFFSET -2.625397 0.000000 11.175217
						CHANNELS 6 Xposition Yposition Zposition Zrotation Yrotation Xrotation
						JOINT RightArm
						{
							OFFSET 0.000000 0.000000 10.434708
							CHANNELS 6 Xposition Yposition Zposition Zrotation Yrotation Xrotation
							JOINT RightForeArm
							{
								OFFSET 0.000000 0.000000 29.628418
								CHANNELS 6 Xposition Yposition Zposition Zrotation Yrotation Xrotation
								JOINT RightHand
								{
									OFFSET 0.000000 0.000000 22.857605
									CHANNELS 6 Xposition Yposition Zposition Zrotation Yrotation Xrotation
									JOINT RightHandThumb1
									{
										OFFSET -2.867310 -2.944275 3.959564
										CHANNELS 6 Xposition Yposition Zposition Zrotation Yrotation Xrotation
										JOINT RightHandThumb2
										{
											OFFSET 0.000000 0.000000 3.350403
											CHANNELS 6 Xposition Yposition Zposition Zrotation Yrotation Xrotation
											JOINT RightHandThumb3
											{
												OFFSET 0.000000 0.000000 3.756516
												CHANNELS 6 Xposition Yposition Zposition Zrotation Yrotation Xrotation
												JOINT RightHandThumb4
												{
													OFFSET 0.000000 0.000000 3.147339
													CHANNELS 6 Xposition Yposition Zposition Zrotation Yrotation Xrotation
													End Site
													{
														OFFSET 0.000000 0.000000 0.100006
													}
												}
											}
										}
									}
									JOINT RightHandIndex1
									{
										OFFSET -0.086761 -2.345276 10.030899
										CHANNELS 6 Xposition Yposition Zposition Zrotation Yrotation Xrotation
										JOINT RightHandIndex2
										{
											OFFSET 0.000000 0.000000 4.061096
											CHANNELS 6 Xposition Yposition Zposition Zrotation Yrotation Xrotation
											JOINT RightHandIndex3
											{
												OFFSET 0.000000 0.000000 3.248871
												CHANNELS 6 Xposition Yposition Zposition Zrotation Yrotation Xrotation
												JOINT RightHandIndex4
												{
													OFFSET 0.000000 0.000000 2.639709
													CHANNELS 6 Xposition Yposition Zposition Zrotation Yrotation Xrotation
													End Site
													{
														OFFSET 0.000000 0.000000 0.100006
													}
												}
											}
										}
									}
									JOINT RightHandMiddle1
									{
										OFFSET 0.104095 -0.006775 9.502945
										CHANNELS 6 Xposition Yposition Zposition Zrotation Yrotation Xrotation
										JOINT RightHandMiddle2
										{
											OFFSET 0.000000 0.000000 4.568726
											CHANNELS 6 Xposition Yposition Zposition Zrotation Yrotation Xrotation
											JOINT RightHandMiddle3
											{
												OFFSET 0.000000 0.000000 3.654984
												CHANNELS 6 Xposition Yposition Zposition Zrotation Yrotation Xrotation
												JOINT RightHandMiddle4
												{
													OFFSET 0.000000 0.000000 2.741241
													CHANNELS 6 Xposition Yposition Zposition Zrotation Yrotation Xrotation
													End Site
													{
														OFFSET 0.000000 0.000000 0.100006
													}
												}
											}
										}
									}
									JOINT RightHandRing1
									{
										OFFSET 0.086761 2.267456 8.921707
										CHANNELS 6 Xposition Yposition Zposition Zrotation Yrotation Xrotation
										JOINT RightHandRing2
										{
											OFFSET 0.000000 0.000000 4.061096
											CHANNELS 6 Xposition Yposition Zposition Zrotation Yrotation Xrotation
											JOINT RightHandRing3
											{
												OFFSET 0.000000 0.000000 3.654984
												CHANNELS 6 Xposition Yposition Zposition Zrotation Yrotation Xrotation
												JOINT RightHandRing4
												{
													OFFSET 0.000000 0.000000 2.741241
													CHANNELS 6 Xposition Yposition Zposition Zrotation Yrotation Xrotation
													End Site
													{
														OFFSET 0.000000 0.000000 0.100006
													}
												}
											}
										}
									}
									JOINT RightHandPinky1
									{
										OFFSET -0.173492 4.467224 7.976990
										CHANNELS 6 Xposition Yposition Zposition Zrotation Yrotation Xrotation
										JOINT RightHandPinky2
										{
											OFFSET 0.000000 0.000000 3.350403
											CHANNELS 6 Xposition Yposition Zposition Zrotation Yrotation Xrotation
											JOINT RightHandPinky3
											{
												OFFSET 0.000000 0.000000 2.842758
												CHANNELS 6 Xposition Yposition Zposition Zrotation Yrotation Xrotation
												JOINT RightHandPinky4
												{
													OFFSET 0.000000 0.000000 2.639709
													CHANNELS 6 Xposition Yposition Zposition Zrotation Yrotation Xrotation
													End Site
													{
														OFFSET 0.000000 0.000000 0.100006
													}
												}
											}
										}
									}
									JOINT RightForeArmEnd
									{
										OFFSET 0.000000 0.000000 0.000000
										CHANNELS 6 Xposition Yposition Zposition Zrotation Yrotation Xrotation
										End Site
										{
											OFFSET 0.000000 0.000000 0.100006
										}
									}
								}
								JOINT RightArmEnd
								{
									OFFSET 0.000000 0.000000 0.000000
									CHANNELS 6 Xposition Yposition Zposition Zrotation Yrotation Xrotation
									End Site
									{
										OFFSET 0.000000 0.000000 0.100006
									}
								}
							}
						}
					}
					JOINT LeftShoulder
					{
						OFFSET 2.625397 0.000000 11.175217
						CHANNELS 6 Xposition Yposition Zposition Zrotation Yrotation Xrotation
						JOINT LeftArm
						{
							OFFSET 0.000000 0.000000 10.813629
							CHANNELS 6 Xposition Yposition Zposition Zrotation Yrotation Xrotation
							JOINT LeftForeArm
							{
								OFFSET 0.000000 0.000000 28.724777
								CHANNELS 6 Xposition Yposition Zposition Zrotation Yrotation Xrotation
								JOINT LeftHand
								{
									OFFSET 0.644379 0.328857 25.716171
									CHANNELS 6 Xposition Yposition Zposition Zrotation Yrotation Xrotation
									JOINT LeftHandThumb1
									{
										OFFSET 2.867310 -2.944275 3.959564
										CHANNELS 6 Xposition Yposition Zposition Zrotation Yrotation Xrotation
										JOINT LeftHandThumb2
										{
											OFFSET 0.000000 0.000000 3.350403
											CHANNELS 6 Xposition Yposition Zposition Zrotation Yrotation Xrotation
											JOINT LeftHandThumb3
											{
												OFFSET 0.000000 0.000000 3.756516
												CHANNELS 6 Xposition Yposition Zposition Zrotation Yrotation Xrotation
												JOINT LeftHandThumb4
												{
													OFFSET 0.000000 0.000000 3.100006
													CHANNELS 6 Xposition Yposition Zposition Zrotation Yrotation Xrotation
													End Site
													{
														OFFSET 0.000000 0.000000 0.100006
													}
												}
											}
										}
									}
									JOINT LeftHandIndex1
									{
										OFFSET 0.086761 -2.345276 10.030899
										CHANNELS 6 Xposition Yposition Zposition Zrotation Yrotation Xrotation
										JOINT LeftHandIndex2
										{
											OFFSET 0.000000 0.000000 4.061096
											CHANNELS 6 Xposition Yposition Zposition Zrotation Yrotation Xrotation
											JOINT LeftHandIndex3
											{
												OFFSET 0.000000 0.000000 3.248871
												CHANNELS 6 Xposition Yposition Zposition Zrotation Yrotation Xrotation
												JOINT LeftHandIndex4
												{
													OFFSET 0.000000 0.000000 2.639709
													CHANNELS 6 Xposition Yposition Zposition Zrotation Yrotation Xrotation
													End Site
													{
														OFFSET 0.000000 0.000000 0.100006
													}
												}
											}
										}
									}
									JOINT LeftHandMiddle1
									{
										OFFSET -0.104095 -0.006775 9.502945
										CHANNELS 6 Xposition Yposition Zposition Zrotation Yrotation Xrotation
										JOINT LeftHandMiddle2
										{
											OFFSET 0.000000 0.000000 4.568726
											CHANNELS 6 Xposition Yposition Zposition Zrotation Yrotation Xrotation
											JOINT LeftHandMiddle3
											{
												OFFSET 0.000000 0.000000 3.654984
												CHANNELS 6 Xposition Yposition Zposition Zrotation Yrotation Xrotation
												JOINT LeftHandMiddle4
												{
													OFFSET 0.000000 0.000000 2.741241
													CHANNELS 6 Xposition Yposition Zposition Zrotation Yrotation Xrotation
													End Site
													{
														OFFSET 0.000000 0.000000 0.100006
													}
												}
											}
										}
									}
									JOINT LeftHandRing1
									{
										OFFSET -0.086761 2.267456 8.921707
										CHANNELS 6 Xposition Yposition Zposition Zrotation Yrotation Xrotation
										JOINT LeftHandRing2
										{
											OFFSET 0.000000 0.000000 4.061096
											CHANNELS 6 Xposition Yposition Zposition Zrotation Yrotation Xrotation
											JOINT LeftHandRing3
											{
												OFFSET 0.000000 0.000000 3.654984
												CHANNELS 6 Xposition Yposition Zposition Zrotation Yrotation Xrotation
												JOINT LeftHandRing4
												{
													OFFSET 0.000000 0.000000 2.741241
													CHANNELS 6 Xposition Yposition Zposition Zrotation Yrotation Xrotation
													End Site
													{
														OFFSET 0.000000 0.000000 0.100006
													}
												}
											}
										}
									}
									JOINT LeftHandPinky1
									{
										OFFSET 0.173492 4.467224 7.976990
										CHANNELS 6 Xposition Yposition Zposition Zrotation Yrotation Xrotation
										JOINT LeftHandPinky2
										{
											OFFSET 0.000000 0.000000 3.350403
											CHANNELS 6 Xposition Yposition Zposition Zrotation Yrotation Xrotation
											JOINT LeftHandPinky3
											{
												OFFSET 0.000000 0.000000 2.842758
												CHANNELS 6 Xposition Yposition Zposition Zrotation Yrotation Xrotation
												JOINT LeftHandPinky4
												{
													OFFSET 0.000000 0.000000 2.639709
													CHANNELS 6 Xposition Yposition Zposition Zrotation Yrotation Xrotation
													End Site
													{
														OFFSET 0.000000 0.000000 0.100006
													}
												}
											}
										}
									}
									JOINT LeftForeArmEnd
									{
										OFFSET 0.000000 0.000000 0.000000
										CHANNELS 6 Xposition Yposition Zposition Zrotation Yrotation Xrotation
										End Site
										{
											OFFSET 0.000000 0.000000 0.100006
										}
									}
								}
								JOINT LeftArmEnd
								{
									OFFSET 0.000000 0.000000 0.000000
									CHANNELS 6 Xposition Yposition Zposition Zrotation Yrotation Xrotation
									End Site
									{
										OFFSET 0.000000 0.000000 0.100006
									}
								}
							}
						}
					}
				}
			}
		}
	}
	JOINT RightUpLeg
	{
		OFFSET -11.289948 0.000000 0.000000
		CHANNELS 6 Xposition Yposition Zposition Zrotation Yrotation Xrotation
		JOINT RightLeg
		{
			OFFSET 0.000000 0.000000 -38.200329
			CHANNELS 6 Xposition Yposition Zposition Zrotation Yrotation Xrotation
			JOINT RightFoot
			{
				OFFSET 0.000000 0.000000 -39.900856
				CHANNELS 6 Xposition Yposition Zposition Zrotation Yrotation Xrotation
				JOINT RightToeBase
				{
					OFFSET 0.000000 -15.261658 0.000002
					CHANNELS 6 Xposition Yposition Zposition Zrotation Yrotation Xrotation
					JOINT RightToeBaseEnd
					{
						OFFSET 0.000000 -7.370728 0.000000
						CHANNELS 6 Xposition Yposition Zposition Zrotation Yrotation Xrotation
						End Site
						{
							OFFSET 0.000000 0.000000 0.100000
						}
					}
				}
				JOINT RightLegEnd
				{
					OFFSET 0.000000 0.000000 0.000000
					CHANNELS 6 Xposition Yposition Zposition Zrotation Yrotation Xrotation
					End Site
					{
						OFFSET 0.000000 0.000000 0.100000
					}
				}
			}
			JOINT RightUpLegEnd
			{
				OFFSET 0.000000 0.000000 0.000000
				CHANNELS 6 Xposition Yposition Zposition Zrotation Yrotation Xrotation
				End Site
				{
					OFFSET 0.000000 0.000000 0.099998
				}
			}
		}
	}
	JOINT LeftUpLeg
	{
		OFFSET 11.315674 0.000000 0.000000
		CHANNELS 6 Xposition Yposition Zposition Zrotation Yrotation Xrotation
		JOINT LeftLeg
		{
			OFFSET 0.000000 0.000000 -38.200329
			CHANNELS 6 Xposition Yposition Zposition Zrotation Yrotation Xrotation
			JOINT LeftFoot
			{
				OFFSET 0.000000 0.000000 -39.900856
				CHANNELS 6 Xposition Yposition Zposition Zrotation Yrotation Xrotation
				JOINT LeftToeBase
				{
					OFFSET 0.000000 -15.261658 0.000002
					CHANNELS 6 Xposition Yposition Zposition Zrotation Yrotation Xrotation
					JOINT LeftToeBaseEnd
					{
						OFFSET 0.000000 -7.539978 0.000000
						CHANNELS 6 Xposition Yposition Zposition Zrotation Yrotation Xrotation
						End Site
						{
							OFFSET 0.000000 0.000000 0.100000
						}
					}
				}
				JOINT LeftLegEnd
				{
					OFFSET 0.000000 0.000000 0.000000
					CHANNELS 6 Xposition Yposition Zposition Zrotation Yrotation Xrotation
					End Site
					{
						OFFSET 0.000000 0.000000 0.100000
					}
				}
			}
			JOINT LeftUpLegEnd
			{
				OFFSET 0.000000 0.000000 0.000000
				CHANNELS 6 Xposition Yposition Zposition Zrotation Yrotation Xrotation
				End Site
				{
					OFFSET 0.000000 0.000000 0.099998
				}
			}
		}
	}
}
MOTION
Frames: 2
Frame Time: 0.016667
-14.106750 -4.214233 86.104347 -4.095375 2.332995 -18.876196 -0.000005 2.080099 8.814242 0.326728 -2.268069 7.738062 0.000005 -0.000001 8.844150 0.619203 -0.566845 2.724253 -0.000001 -0.000007 11.682274 2.193530 1.071762 5.264697 -0.000045 0.000030 11.746698 1.375301 1.683628 5.217267 0.000009 -0.000005 17.658260 2.899702 -0.618495 0.377942 0.000021 0.000011 5.101510 3.456600 -0.384664 -6.525936 -0.000004 0.000010 5.101519 -2.214025 2.674935 -23.572736 -0.000002 0.000003 11.655069 -0.000001 -0.000000 -0.000001 -2.625389 -0.000004 11.175212 17.210304 -65.668041 -0.021593 -0.000001 0.000038 10.434723 13.841166 -12.808957 32.670554 0.000019 0.000031 29.628422 20.612889 0.525739 59.605654 -0.000008 -0.000011 22.857590 -51.182173 19.643315 -19.261504 -2.867332 -2.944305 3.959534 32.633708 -12.963893 58.544543 -0.000045 0.000006 3.350397 -3.390199 3.021837 -6.579874 0.000011 -0.000005 3.756509 -2.317184 2.139867 -4.550174 0.000005 -0.000061 3.147361 0.000001 -0.000001 0.000000 -0.086792 -2.345282 10.030930 -4.405158 27.257562 13.818703 0.000004 -0.000055 4.061124 0.659692 -0.000284 -0.000339 -0.000001 -0.000072 3.248889 0.151004 -0.000003 -0.005163 -0.000037 -0.000054 2.639693 -0.000000 -0.000001 -0.000002 0.104095 -0.006839 9.502983 0.866278 25.402706 10.283458 -0.000025 0.000021 4.568733 0.568325 -0.000144 0.000253 -0.000046 0.000004 3.655004 0.113121 -0.000001 -0.169962 -0.000032 -0.000001 2.741242 0.000001 0.000001 0.000004 0.086761 2.267474 8.921715 189.290237 -203.144606 -173.544684 -0.000002 -0.000065 4.061083 -1.254054 -0.039808 0.001315 -0.000022 -0.000048 3.654987 -0.073027 0.020994 -0.015590 -0.000030 0.000004 2.741238 0.000000 0.000000 0.000002 -0.173500 4.467167 7.977008 17.818668 21.197355 1.664087 -0.000014 -0.000054 3.350414 -2.076699 -0.000084 -0.000013 0.000001 -0.000063 2.842751 -0.109245 -0.000000 -0.002047 -0.000033 -0.000071 2.639688 -0.000000 0.000000 0.000001 -0.000010 0.000005 0.000024 -0.000001 -0.000003 0.000001 0.000028 0.000000 -0.000014 -0.000000 -0.000001 -0.000004 2.625381 -0.000011 11.175195 -15.946200 67.801867 -0.619091 -0.000008 -0.000008 10.813641 -21.309046 16.187335 2.744817 0.000034 0.000015 28.724789 -18.077562 0.978214 61.647553 0.644356 0.328745 25.716171 24.557462 -23.513570 -15.451831 2.867226 -2.944290 3.959526 -33.066882 11.900325 60.484180 0.000000 -0.000037 3.350422 1.191949 -1.143621 -2.371213 -0.000079 -0.000012 3.756528 0.822689 -0.799409 -1.644106 -0.000037 -0.000040 3.100003 -0.000003 -0.000001 -0.000000 0.086723 -2.345268 10.030853 -14.043251 -26.056468 36.153216 -0.000048 -0.000027 4.061083 0.723533 0.039579 0.000157 -0.000075 -0.000019 3.248888 0.210217 -0.022297 0.000521 -0.000026 -0.000007 2.639708 0.000001 0.000000 -0.000001 -0.104132 -0.006767 9.502930 -189.187210 207.286939 -156.917709 0.000000 -0.000053 4.568749 0.697572 -0.000013 0.067736 0.000009 -0.000075 3.655005 0.189677 -0.000007 0.058382 -0.000033 -0.000007 2.741226 0.000001 -0.000000 0.000000 -0.086838 2.267433 8.921703 -179.712659 205.191300 -173.619789 -0.000045 0.000023 4.061105 -1.153097 0.000268 -0.100812 -0.000049 0.000026 3.654984 -0.119122 -0.000014 -0.058850 -0.000043 -0.000007 2.741255 0.000001 -0.000000 -0.000000 0.173424 4.467138 7.977036 -169.978178 197.883039 -189.597473 -0.000032 -0.000014 3.350417 -2.088855 0.000012 0.000286 -0.000074 -0.000008 2.842787 -0.076727 0.000004 -0.008762 -0.000040 0.000003 2.639716 -0.000001 -0.000000 0.000001 -0.000022 -0.000014 0.000014 0.000002 0.000002 -0.000000 -0.000003 -0.000013 0.000005 0.000002 0.000003 -0.000001 -11.289936 0.000018 -0.000001 -4.185473 0.253865 3.677896 0.000006 0.000070 -38.200279 -0.811619 0.422766 27.512938 -0.000013 -0.000047 -39.900871 0.392423 0.216137 12.277648 -0.000007 -15.261707 0.000030 0.991980 0.593397 -19.076715 0.000007 -7.370665 -0.000001 -0.000000 0.000000 -0.000000 -0.000010 -0.000002 -0.000002 0.000000 -0.000000 -0.000001 0.000005 -0.000005 0.000000 0.000001 0.000000 0.000000 11.315712 0.000061 -0.000005 -3.654068 0.980654 6.227310 0.000035 0.000064 -38.200317 -0.289254 0.184970 32.663682 0.000043 -0.000008 -39.900860 12.851529 -2.273712 4.390610 -0.000005 -15.261718 0.000042 0.001631 -0.539364 -19.885373 -0.000030 -7.539979 0.000000 0.000000 0.000001 -0.000001 0.000004 0.000001 0.000000 -0.000000 -0.000000 0.000001 0.000027 0.000003 -0.000011 -0.000001 0.000000 0.000000 
-14.080780 -4.268555 86.114586 -4.327279 2.355167 -18.799107 -0.000015 2.080106 8.814241 0.351711 -2.239032 7.657373 0.000003 0.000014 8.844140 0.656725 -0.558421 2.692450 -0.000002 -0.000006 11.682285 2.353869 1.135569 5.152327 -0.000037 0.000014 11.746683 1.447781 1.775298 5.080394 -0.000008 -0.000012 17.658270 2.727906 -0.673331 0.157497 -0.000015 -0.000010 5.101532 3.223421 -0.304588 -6.668194 -0.000001 -0.000022 5.101505 -2.260175 2.663021 -23.551817 0.000001 -0.000002 11.655088 0.000000 0.000000 -0.000001 -2.625397 -0.000023 11.175220 17.231087 -65.575171 -0.030853 0.000000 0.000023 10.434708 14.557083 -12.836206 32.172424 -0.000011 0.000000 29.628424 20.768013 0.537057 57.958882 -0.000023 0.000014 22.857605 -51.260775 19.310241 -19.668522 -2.867348 -2.944305 3.959526 32.633701 -12.963899 58.544557 0.000037 -0.000027 3.350388 -3.390210 3.021827 -6.579997 0.000005 -0.000024 3.756497 -2.317176 2.139888 -4.550054 -0.000039 -0.000063 3.147348 0.000001 0.000000 0.000001 -0.086800 -2.345268 10.030899 -4.408996 27.143479 13.923338 0.000002 -0.000091 4.061111 0.659855 -0.168847 -0.002279 -0.000010 -0.000032 3.248901 0.151085 0.093760 -0.004978 -0.000020 0.000001 2.639686 -0.000002 -0.000000 -0.000002 0.104042 -0.006871 9.502922 0.820731 25.154045 10.307216 -0.000050 0.000028 4.568716 0.567645 -0.000151 0.000251 -0.000070 -0.000008 3.654981 0.112401 -0.000001 -0.171896 -0.000031 0.000005 2.741267 -0.000001 0.000000 -0.000002 0.086761 2.267428 8.921696 189.192497 -202.738893 -173.574177 -0.000028 -0.000077 4.061081 -1.252723 -0.000004 0.000434 -0.000016 -0.000039 3.654979 -0.071794 0.000002 -0.015308 -0.000043 -0.000002 2.741243 0.000000 0.000000 0.000000 -0.173508 4.467098 7.976976 17.667181 20.684084 1.595727 -0.000036 -0.000038 3.350407 -2.075122 -0.000649 0.000011 -0.000018 -0.000034 2.842762 -0.108332 0.000001 -0.001995 -0.000035 -0.000060 2.639699 -0.000000 0.000001 0.000000 -0.000022 0.000023 0.000006 -0.000003 -0.000000 -0.000001 0.000003 0.000012 -0.000002 -0.000001 0.000002 -0.000000 2.625381 -0.000004 11.175231 -15.941200 67.584059 -0.613305 0.000004 0.000015 10.813623 -21.804841 15.900824 2.679434 0.000027 0.000015 28.724794 -18.308592 1.038896 60.336334 0.644272 0.328846 25.716171 23.421852 -23.249875 -15.609009 2.867241 -2.944275 3.959572 -33.066882 11.900319 60.484180 0.000004 -0.000144 3.350417 1.191935 -1.143591 -2.371216 -0.000097 0.000020 3.756516 0.822712 -0.799425 -1.644101 -0.000022 0.000048 3.100012 0.000000 0.000002 -0.000001 0.086769 -2.345291 10.030930 -13.961976 -25.804122 36.045330 -0.000019 0.000003 4.061093 0.723261 0.000007 -0.000340 -0.000021 -0.000015 3.248885 0.209964 -0.000000 0.000603 -0.000026 -0.000001 2.639713 -0.000000 -0.000000 0.000001 -0.104097 -0.006779 9.502945 -189.079594 206.876157 -156.954332 -0.000008 -0.000073 4.568768 0.697399 -0.000050 0.066829 -0.000002 -0.000088 3.654985 0.189706 -0.000005 0.057612 0.000001 -0.000004 2.741234 0.000001 -0.000000 0.000001 -0.086798 2.267431 8.921688 -179.599947 204.545082 -173.464279 -0.000043 -0.000010 4.061118 -1.150622 0.000008 -0.100487 -0.000031 -0.000011 3.654982 -0.117177 -0.000007 -0.058702 -0.000022 -0.000009 2.741250 0.000002 -0.000001 0.000000 0.173462 4.467180 7.977036 -169.870916 197.157563 -189.187702 -0.000016 0.000007 3.350401 -2.089140 0.000042 0.000281 -0.000024 0.000012 2.842752 -0.077006 0.000005 -0.008792 -0.000064 -0.000004 2.639745 0.000001 0.000001 -0.000001 -0.000015 -0.000045 0.000060 -0.000002 0.000001 -0.000003 -0.000015 0.000009 0.000011 -0.000001 -0.000002 0.000001 -11.289950 -0.000015 -0.000016 -4.242050 0.260929 3.640239 0.000011 0.000042 -38.200325 -0.823133 0.427241 27.429013 -0.000007 -0.000045 -39.900867 0.651585 0.229863 12.321058 -0.000010 -15.261707 0.000028 1.005211 0.566250 -19.088162 -0.000001 -7.370676 0.000001 0.000002 -0.000000 -0.000001 0.000008 0.000058 -0.000001 0.000000 0.000000 0.000000 0.000003 0.000065 -0.000006 -0.000000 -0.000000 -0.000000 11.315713 0.000041 -0.000007 -3.576442 0.966715 6.271028 0.000023 0.000038 -38.200325 -0.292462 0.186374 32.557862 0.000007 -0.000015 -39.900852 13.014590 -2.244877 4.355866 -0.000015 -15.261675 0.000005 0.001947 -0.566982 -19.801965 -0.000031 -7.539979 -0.000001 0.000000 0.000000 0.000000 0.000002 0.000003 -0.000001 -0.000000 -0.000000 0.000002 0.000026 0.000058 0.000002 0.000001 -0.000000 0.000002 
